<svg width="44" height="44" viewBox="0 0 44 44" fill="none" xmlns="http://www.w3.org/2000/svg">
<path d="M17 18.5L19.942 20.2394C21.6572 21.2535 22.3428 21.2535 24.058 20.2394L27 18.5" stroke="#262626" stroke-width="1.5" stroke-linecap="round" stroke-linejoin="round"/>
<path d="M12.0158 23.4756C12.0811 26.5412 12.1138 28.0739 13.245 29.2094C14.3761 30.3448 15.9503 30.3843 19.0988 30.4634C21.0393 30.5122 22.9607 30.5122 24.9012 30.4634C28.0497 30.3843 29.6239 30.3448 30.7551 29.2094C31.8862 28.0739 31.9189 26.5412 31.9842 23.4756C32.0053 22.4899 32.0053 21.5101 31.9842 20.5244C31.9189 17.4589 31.8862 15.9261 30.7551 14.7907C29.6239 13.6552 28.0497 13.6157 24.9012 13.5366C22.9607 13.4878 21.0393 13.4878 19.0988 13.5366C15.9503 13.6157 14.3761 13.6552 13.245 14.7906C12.1138 15.9261 12.0811 17.4588 12.0158 20.5244C11.9947 21.5101 11.9947 22.4899 12.0158 23.4756Z" stroke="#262626" stroke-width="1.5" stroke-linejoin="round"/>
</svg>
