<svg width="103" height="104" viewBox="0 0 103 104" fill="none" xmlns="http://www.w3.org/2000/svg">
<path d="M96.4793 53.9987C98.0236 52.2003 99.1059 50.0522 99.6321 47.7408C100.158 45.4295 100.113 43.0246 99.4991 40.7348C98.8856 38.4451 97.7225 36.3396 96.111 34.6011C94.4995 32.8626 92.4882 31.5435 90.2515 30.7583C90.6898 28.4285 90.5529 26.027 89.8529 23.7621C89.1529 21.4972 87.9108 19.4373 86.2344 17.7611C84.558 16.0849 82.4979 14.8431 80.2329 14.1433C77.9679 13.4436 75.5664 13.3071 73.2367 13.7456C72.4521 11.5084 71.1332 9.49652 69.3947 7.88462C67.6561 6.27272 65.5504 5.10954 63.2603 4.49608C60.9703 3.88262 58.5651 3.83741 56.2535 4.36439C53.942 4.89136 51.7941 5.97459 49.9962 7.52002C48.1978 5.97565 46.0497 4.8934 43.7383 4.36716C41.4269 3.84091 39.022 3.88656 36.7323 4.50015C34.4425 5.11374 32.3371 6.27673 30.5986 7.88824C28.86 9.49975 27.541 11.5111 26.7558 13.7478C24.4261 13.31 22.0249 13.4471 19.7603 14.1473C17.4956 14.8475 15.4361 16.0897 13.7601 17.766C12.0842 19.4423 10.8426 21.5022 10.143 23.767C9.44334 26.0318 9.30683 28.4331 9.74527 30.7626C7.50856 31.5478 5.4972 32.8669 3.88569 34.6054C2.27418 36.344 1.11119 38.4494 0.497598 40.7392C-0.11599 43.0289 -0.161649 45.4338 0.364597 47.7452C0.890843 50.0566 1.97311 52.2046 3.51748 54.0031C1.97264 55.8014 0.890041 57.9497 0.363645 60.2613C-0.162751 62.5729 -0.117053 64.9781 0.496804 67.268C1.11066 69.558 2.27411 71.6635 3.88617 73.4019C5.49823 75.1403 7.51021 76.459 9.74744 77.2435C9.30862 79.5731 9.44497 81.9746 10.1447 84.2395C10.8444 86.5044 12.0864 88.5643 13.7627 90.2404C15.439 91.9165 17.4991 93.1582 19.7641 93.8576C22.0291 94.5571 24.4306 94.6931 26.7601 94.254C27.5453 96.4907 28.8644 98.5021 30.6029 100.114C32.3414 101.725 34.4469 102.888 36.7366 103.502C39.0264 104.115 41.4312 104.161 43.7426 103.635C46.054 103.108 48.2021 102.026 50.0005 100.482C51.7989 102.027 53.9472 103.109 56.2588 103.636C58.5704 104.162 60.9756 104.116 63.2655 103.502C65.5555 102.889 67.661 101.725 69.3994 100.113C71.1378 98.501 72.4565 96.4891 73.241 94.2518C75.5706 94.6905 77.9721 94.5541 80.2371 93.8544C82.502 93.1546 84.562 91.9127 86.2383 90.2365C87.9145 88.5602 89.1564 86.5003 89.8562 84.2353C90.5559 81.9703 90.6923 79.5688 90.2536 77.2392C92.4905 76.4542 94.5021 75.1351 96.1136 73.3965C97.7252 71.6579 98.8882 69.5523 99.5016 67.2624C100.115 64.9725 100.16 62.5675 99.6336 60.2562C99.107 57.9448 98.0242 55.7968 96.4793 53.9987Z" fill="#4CAF50" fill-opacity="0.24"/>
<path d="M41.0226 73.0863L27.1282 59.2005C26.6009 58.6723 26.3047 57.9565 26.3047 57.2102C26.3047 56.4638 26.6009 55.748 27.1282 55.2198L28.8162 53.5296C29.3444 53.0023 30.0602 52.7061 30.8066 52.7061C31.5529 52.7061 32.2688 53.0023 32.7969 53.5296L42.897 63.6232L66.6836 38.3459C67.1954 37.8028 67.9018 37.485 68.6477 37.4622C69.3936 37.4395 70.1181 37.7136 70.6621 38.2245L72.3956 39.8606C72.9393 40.3725 73.2575 41.0793 73.2803 41.8258C73.303 42.5722 73.0285 43.2971 72.5169 43.8412L45.0705 73.0234C44.8121 73.2988 44.5009 73.5195 44.1555 73.6722C43.8101 73.825 43.4375 73.9067 43.0599 73.9126C42.6822 73.9185 42.3073 73.8483 41.9573 73.7064C41.6073 73.5644 41.2895 73.3535 41.0226 73.0863Z" fill="white" fill-opacity="0.24"/>
<path d="M99.4793 49.9987C101.024 48.2003 102.106 46.0522 102.632 43.7408C103.158 41.4295 103.113 39.0246 102.499 36.7348C101.886 34.4451 100.723 32.3396 99.111 30.6011C97.4995 28.8626 95.4882 27.5435 93.2515 26.7583C93.6898 24.4285 93.5529 22.027 92.8529 19.7621C92.1529 17.4972 90.9108 15.4373 89.2344 13.7611C87.558 12.0849 85.4979 10.8431 83.2329 10.1433C80.9679 9.4436 78.5664 9.30709 76.2367 9.74564C75.4521 7.50842 74.1332 5.49652 72.3947 3.88462C70.6561 2.27272 68.5504 1.10954 66.2603 0.496083C63.9703 -0.117379 61.5651 -0.162585 59.2535 0.364389C56.942 0.891363 54.7941 1.97459 52.9962 3.52002C51.1978 1.97565 49.0497 0.893402 46.7383 0.367156C44.4269 -0.15909 42.022 -0.113438 39.7323 0.50015C37.4425 1.11374 35.3371 2.27673 33.5986 3.88824C31.86 5.49975 30.541 7.5111 29.7558 9.74781C27.4261 9.30996 25.0249 9.44709 22.7603 10.1473C20.4956 10.8475 18.4361 12.0897 16.7601 13.766C15.0842 15.4423 13.8426 17.5022 13.143 19.767C12.4433 22.0318 12.3068 24.4331 12.7453 26.7626C10.5086 27.5478 8.4972 28.8669 6.88569 30.6054C5.27418 32.344 4.11119 34.4494 3.4976 36.7392C2.88401 39.0289 2.83835 41.4338 3.3646 43.7452C3.89084 46.0566 4.97311 48.2046 6.51748 50.0031C4.97264 51.8014 3.89004 53.9497 3.36364 56.2613C2.83725 58.5729 2.88295 60.9781 3.4968 63.268C4.11066 65.558 5.27411 67.6635 6.88617 69.4019C8.49823 71.1403 10.5102 72.459 12.7474 73.2435C12.3086 75.5731 12.445 77.9746 13.1447 80.2395C13.8444 82.5044 15.0864 84.5643 16.7627 86.2404C18.439 87.9165 20.4991 89.1582 22.7641 89.8576C25.0291 90.5571 27.4306 90.6931 29.7601 90.254C30.5453 92.4907 31.8644 94.5021 33.6029 96.1136C35.3414 97.7251 37.4469 98.8881 39.7366 99.5017C42.0264 100.115 44.4312 100.161 46.7426 99.6347C49.054 99.1084 51.2021 98.0262 53.0005 96.4818C54.7989 98.0266 56.9472 99.1092 59.2588 99.6356C61.5704 100.162 63.9756 100.116 66.2655 99.5025C68.5555 98.8886 70.661 97.7252 72.3994 96.1131C74.1378 94.501 75.4565 92.4891 76.241 90.2518C78.5706 90.6905 80.9721 90.5541 83.2371 89.8544C85.502 89.1546 87.562 87.9127 89.2383 86.2365C90.9145 84.5602 92.1564 82.5003 92.8562 80.2353C93.5559 77.9703 93.6923 75.5688 93.2536 73.2392C95.4905 72.4542 97.5021 71.1351 99.1136 69.3965C100.725 67.6579 101.888 65.5523 102.502 63.2624C103.115 60.9725 103.16 58.5675 102.634 56.2562C102.107 53.9448 101.024 51.7968 99.4793 49.9987Z" fill="#4CAF50"/>
<path d="M44.0226 69.0863L30.1282 55.2005C29.6009 54.6723 29.3047 53.9565 29.3047 53.2102C29.3047 52.4638 29.6009 51.748 30.1282 51.2198L31.8162 49.5296C32.3444 49.0023 33.0602 48.7061 33.8066 48.7061C34.5529 48.7061 35.2688 49.0023 35.7969 49.5296L45.897 59.6232L69.6836 34.3459C70.1954 33.8028 70.9018 33.485 71.6477 33.4622C72.3936 33.4395 73.1181 33.7136 73.6621 34.2245L75.3956 35.8606C75.9393 36.3725 76.2575 37.0793 76.2803 37.8258C76.303 38.5722 76.0285 39.2971 75.5169 39.8412L48.0705 69.0234C47.8121 69.2988 47.5009 69.5195 47.1555 69.6722C46.8101 69.825 46.4375 69.9067 46.0599 69.9126C45.6822 69.9185 45.3073 69.8483 44.9573 69.7064C44.6073 69.5644 44.2895 69.3535 44.0226 69.0863Z" fill="white"/>
</svg>
