<svg width="60" height="60" viewBox="0 0 60 60" fill="none" xmlns="http://www.w3.org/2000/svg">
<rect x="10" y="10" width="40" height="40" rx="20" fill="#785600"/>
<g opacity="0.48">
<rect width="24" height="24" transform="translate(18 18)" fill="#785600"/>
<path d="M26 23V24.5H34V23C34 21.8954 33.1046 21 32 21H28C26.8954 21 26 21.8954 26 23Z" stroke="#FFE090"/>
<path d="M22 37.5V30H38.5V37.5C38.5 38.6046 37.6046 39.5 36.5 39.5H24C22.8954 39.5 22 38.6046 22 37.5Z" fill="#FFE090" stroke="#FFE090"/>
<path d="M38.5 24H22C20.8954 24 20 24.8954 20 26V27.5C20 29.7091 21.7909 31.5 24 31.5H36.5C38.7091 31.5 40.5 29.7091 40.5 27.5V26C40.5 24.8954 39.6046 24 38.5 24Z" fill="#FFBB0A" stroke="#FFBB0A"/>
<circle cx="31" cy="29" r="1" fill="#FFE090"/>
</g>
<path d="M27 23V24.5H35V23C35 21.8954 34.1046 21 33 21H29C27.8954 21 27 21.8954 27 23Z" stroke="#FFBB0A"/>
<path d="M23 37.5V30H39.5V37.5C39.5 38.6046 38.6046 39.5 37.5 39.5H25C23.8954 39.5 23 38.6046 23 37.5Z" fill="#FFE090" stroke="#FFBB0A"/>
<path d="M39.5 24H23C21.8954 24 21 24.8954 21 26V27.5C21 29.7091 22.7909 31.5 25 31.5H37.5C39.7091 31.5 41.5 29.7091 41.5 27.5V26C41.5 24.8954 40.6046 24 39.5 24Z" fill="#FFBB0A" stroke="#FFBB0A"/>
<circle cx="32" cy="29" r="0.5" fill="#FFE090" stroke="#FFBB0A"/>
</svg>
