<svg width="60" height="60" viewBox="0 0 60 60" fill="none" xmlns="http://www.w3.org/2000/svg">
<rect x="10" y="10" width="40" height="40" rx="20" fill="#785600"/>
<g style="mix-blend-mode:luminosity">
<path d="M36.5 21.7266H24L21.5 23.7266V35.7266L23.5 38.7266H36L38.5 36.7266L39 24.7266L36.5 21.7266Z" fill="#FFE090" stroke="#FFE090"/>
<path d="M30 26.2266V34.2266M34 30.2266L26 30.2266" stroke="#FFBB0A" stroke-width="1.5" stroke-linecap="round" stroke-linejoin="round"/>
<path d="M20.5 30.2266C20.5 25.7482 20.5 23.509 21.8912 22.1178C23.2825 20.7266 25.5217 20.7266 30 20.7266C34.4783 20.7266 36.7175 20.7266 38.1088 22.1178C39.5 23.509 39.5 25.7482 39.5 30.2266C39.5 34.7049 39.5 36.9441 38.1088 38.3353C36.7175 39.7266 34.4783 39.7266 30 39.7266C25.5217 39.7266 23.2825 39.7266 21.8912 38.3353C20.5 36.9441 20.5 34.7049 20.5 30.2266Z" stroke="#FFBB0A" stroke-width="1.5"/>
</g>
<path d="M37.5 21.7266H25L22.5 23.7266V35.7266L24.5 38.7266H37L39.5 36.7266L40 24.7266L37.5 21.7266Z" fill="#FFE090" stroke="#FFE090"/>
<path d="M31 26.2266V34.2266M35 30.2266L27 30.2266" stroke="#FFBB0A" stroke-width="1.5" stroke-linecap="round" stroke-linejoin="round"/>
<path d="M21.5 30.2266C21.5 25.7482 21.5 23.509 22.8912 22.1178C24.2825 20.7266 26.5217 20.7266 31 20.7266C35.4783 20.7266 37.7175 20.7266 39.1088 22.1178C40.5 23.509 40.5 25.7482 40.5 30.2266C40.5 34.7049 40.5 36.9441 39.1088 38.3353C37.7175 39.7266 35.4783 39.7266 31 39.7266C26.5217 39.7266 24.2825 39.7266 22.8912 38.3353C21.5 36.9441 21.5 34.7049 21.5 30.2266Z" stroke="#FFBB0A" stroke-width="1.5"/>
</svg>
