<svg width="223" height="40" viewBox="0 0 223 40" fill="none" xmlns="http://www.w3.org/2000/svg">
<path d="M35.5707 37.7331L25.5869 18.8164L29.7906 19.0791L39.7744 37.7331H35.5707Z" fill="black" stroke="black" stroke-width="0.525464"/>
<path d="M19.5426 2.26562L26.6364 15.4022H22.4327L19.5426 10.1476L17.4407 13.3004L30.5773 37.7345L8.24512 37.4717L15.6016 24.5979L17.4407 28.5388L14.5507 34.0562H24.2718L13.4998 13.3004L19.5426 2.26562Z" fill="white" stroke="white" stroke-width="0.525464"/>
<path d="M12.4503 16.9805L1.41553 37.4736H5.88197L14.5521 20.6587L12.4503 16.9805Z" fill="black" stroke="black" stroke-width="0.525464"/>
<path d="M52.7544 18L58.2944 4H61.1744L66.6744 18H63.2344L60.5944 10.9C60.4877 10.62 60.3811 10.32 60.2744 10C60.1677 9.68 60.0611 9.35333 59.9544 9.02C59.8477 8.67333 59.7411 8.34 59.6344 8.02C59.5411 7.68667 59.4611 7.38 59.3944 7.1L59.9944 7.08C59.9144 7.41333 59.8211 7.74 59.7144 8.06C59.6211 8.38 59.5211 8.7 59.4144 9.02C59.3211 9.32667 59.2144 9.64 59.0944 9.96C58.9744 10.2667 58.8611 10.5867 58.7544 10.92L56.1144 18H52.7544ZM55.3944 15.32L56.4544 12.76H62.8944L63.9344 15.32H55.3944ZM70.4211 18V4H73.4611L80.8011 14L80.1411 13.9C80.0745 13.46 80.0211 13.04 79.9811 12.64C79.9411 12.24 79.9011 11.8467 79.8611 11.46C79.8345 11.0733 79.8078 10.68 79.7811 10.28C79.7678 9.88 79.7545 9.44667 79.7411 8.98C79.7411 8.51333 79.7411 8.00667 79.7411 7.46V4H83.0411V18H79.9611L72.3011 7.68L73.3211 7.82C73.3878 8.46 73.4411 9.00667 73.4811 9.46C73.5345 9.9 73.5745 10.2933 73.6011 10.64C73.6411 10.9867 73.6678 11.3 73.6811 11.58C73.6945 11.86 73.7011 12.14 73.7011 12.42C73.7145 12.6867 73.7211 12.9867 73.7211 13.32V18H70.4211ZM86.7739 18L92.3139 4H95.1939L100.694 18H97.2539L94.6139 10.9C94.5073 10.62 94.4006 10.32 94.2939 10C94.1873 9.68 94.0806 9.35333 93.9739 9.02C93.8673 8.67333 93.7606 8.34 93.6539 8.02C93.5606 7.68667 93.4806 7.38 93.4139 7.1L94.0139 7.08C93.9339 7.41333 93.8406 7.74 93.7339 8.06C93.6406 8.38 93.5406 8.7 93.4339 9.02C93.3406 9.32667 93.2339 9.64 93.1139 9.96C92.9939 10.2667 92.8806 10.5867 92.7739 10.92L90.1339 18H86.7739ZM89.4139 15.32L90.4739 12.76H96.9139L97.9539 15.32H89.4139ZM104.441 18V4H107.841V15H114.081V18H104.441ZM124.618 18.2C123.551 18.2 122.578 18.02 121.698 17.66C120.818 17.3 120.051 16.7933 119.398 16.14C118.744 15.4867 118.238 14.72 117.878 13.84C117.518 12.96 117.338 11.9933 117.338 10.94C117.338 9.88667 117.518 8.92 117.878 8.04C118.238 7.16 118.744 6.39333 119.398 5.74C120.051 5.08667 120.818 4.58 121.698 4.22C122.578 3.86 123.544 3.68 124.598 3.68C125.651 3.68 126.618 3.86 127.498 4.22C128.378 4.58 129.144 5.08667 129.798 5.74C130.451 6.39333 130.951 7.16 131.298 8.04C131.658 8.92 131.838 9.88667 131.838 10.94C131.838 11.98 131.658 12.9467 131.298 13.84C130.951 14.72 130.451 15.4867 129.798 16.14C129.144 16.7933 128.378 17.3 127.498 17.66C126.618 18.02 125.658 18.2 124.618 18.2ZM124.598 15C125.144 15 125.644 14.9 126.098 14.7C126.564 14.5 126.964 14.22 127.298 13.86C127.644 13.4867 127.911 13.0533 128.098 12.56C128.284 12.0667 128.378 11.5267 128.378 10.94C128.378 10.3533 128.284 9.81333 128.098 9.32C127.911 8.82667 127.644 8.4 127.298 8.04C126.964 7.66667 126.564 7.38 126.098 7.18C125.644 6.98 125.144 6.88 124.598 6.88C124.051 6.88 123.544 6.98 123.078 7.18C122.624 7.38 122.224 7.66667 121.878 8.04C121.531 8.4 121.264 8.82667 121.078 9.32C120.904 9.81333 120.818 10.3533 120.818 10.94C120.818 11.5267 120.904 12.0733 121.078 12.58C121.264 13.0733 121.531 13.5 121.878 13.86C122.224 14.22 122.624 14.5 123.078 14.7C123.544 14.9 124.051 15 124.598 15ZM142.968 18.2C141.848 18.2 140.835 18.02 139.928 17.66C139.021 17.3 138.241 16.7933 137.588 16.14C136.935 15.4867 136.435 14.72 136.088 13.84C135.741 12.9467 135.568 11.98 135.568 10.94C135.568 9.9 135.748 8.94667 136.108 8.08C136.481 7.2 137.008 6.43333 137.688 5.78C138.368 5.12667 139.168 4.62 140.088 4.26C141.021 3.9 142.035 3.72 143.128 3.72C143.901 3.72 144.628 3.82 145.308 4.02C146.001 4.22 146.628 4.49333 147.188 4.84C147.748 5.18667 148.221 5.58667 148.608 6.04L146.548 8.22C146.215 7.9 145.868 7.63333 145.508 7.42C145.161 7.20667 144.788 7.04 144.388 6.92C143.988 6.78667 143.561 6.72 143.108 6.72C142.521 6.72 141.981 6.82667 141.488 7.04C141.008 7.25333 140.581 7.55333 140.208 7.94C139.848 8.31333 139.568 8.76 139.368 9.28C139.168 9.78667 139.068 10.34 139.068 10.94C139.068 11.54 139.175 12.1 139.388 12.62C139.601 13.14 139.895 13.5933 140.268 13.98C140.641 14.3533 141.081 14.6533 141.588 14.88C142.108 15.0933 142.661 15.2 143.248 15.2C143.661 15.2 144.048 15.1333 144.408 15C144.781 14.8667 145.101 14.6867 145.368 14.46C145.635 14.2333 145.848 13.9667 146.008 13.66C146.168 13.34 146.248 13 146.248 12.64V12.12L146.688 12.8H142.828V10.14H149.408C149.435 10.2867 149.455 10.4867 149.468 10.74C149.481 10.9933 149.488 11.24 149.488 11.48C149.501 11.72 149.508 11.9 149.508 12.02C149.508 12.9267 149.341 13.76 149.008 14.52C148.688 15.2667 148.235 15.9133 147.648 16.46C147.061 17.0067 146.368 17.4333 145.568 17.74C144.768 18.0467 143.901 18.2 142.968 18.2ZM160.013 18.12C158.853 18.12 157.819 17.8867 156.913 17.42C156.006 16.94 155.293 16.2867 154.773 15.46C154.266 14.6333 154.013 13.6867 154.013 12.62V4H157.453V12.44C157.453 12.9467 157.566 13.4067 157.793 13.82C158.019 14.22 158.326 14.54 158.713 14.78C159.099 15.0067 159.533 15.12 160.013 15.12C160.519 15.12 160.966 15.0067 161.353 14.78C161.753 14.54 162.073 14.22 162.313 13.82C162.553 13.4067 162.673 12.9467 162.673 12.44V4H165.993V12.62C165.993 13.6867 165.733 14.6333 165.213 15.46C164.706 16.2867 163.999 16.94 163.093 17.42C162.186 17.8867 161.159 18.12 160.013 18.12ZM171.406 18V4H181.166V6.9H174.706V15.1H181.366V18H171.406ZM173.006 12.26V9.5H180.266V12.26H173.006Z" fill="white"/>
<path d="M59.1744 38.2C58.2544 38.2 57.4211 38.0933 56.6744 37.88C55.9411 37.6533 55.2877 37.3333 54.7144 36.92C54.1411 36.4933 53.6277 35.9933 53.1744 35.42L55.2344 33.08C55.9011 33.9733 56.5677 34.5733 57.2344 34.88C57.9144 35.1867 58.6144 35.34 59.3344 35.34C59.6944 35.34 60.0211 35.2933 60.3144 35.2C60.6077 35.1067 60.8344 34.9733 60.9944 34.8C61.1544 34.6133 61.2344 34.3867 61.2344 34.12C61.2344 33.92 61.1811 33.74 61.0744 33.58C60.9811 33.42 60.8477 33.28 60.6744 33.16C60.5011 33.04 60.2944 32.9333 60.0544 32.84C59.8144 32.7333 59.5611 32.6467 59.2944 32.58C59.0277 32.5 58.7544 32.4333 58.4744 32.38C57.7011 32.2067 57.0277 31.9933 56.4544 31.74C55.8811 31.4867 55.4011 31.18 55.0144 30.82C54.6411 30.4467 54.3611 30.0267 54.1744 29.56C53.9877 29.08 53.8944 28.5467 53.8944 27.96C53.8944 27.3333 54.0344 26.76 54.3144 26.24C54.6077 25.7067 54.9944 25.2533 55.4744 24.88C55.9677 24.4933 56.5344 24.2 57.1744 24C57.8144 23.7867 58.4811 23.68 59.1744 23.68C60.0944 23.68 60.8811 23.78 61.5344 23.98C62.2011 24.1667 62.7677 24.44 63.2344 24.8C63.7144 25.16 64.1211 25.5933 64.4544 26.1L62.3544 28.12C62.0744 27.7733 61.7677 27.4867 61.4344 27.26C61.1144 27.0333 60.7677 26.86 60.3944 26.74C60.0344 26.62 59.6611 26.56 59.2744 26.56C58.8744 26.56 58.5277 26.6133 58.2344 26.72C57.9544 26.8133 57.7344 26.9533 57.5744 27.14C57.4144 27.3133 57.3344 27.5267 57.3344 27.78C57.3344 28.0067 57.4011 28.2 57.5344 28.36C57.6677 28.52 57.8477 28.6667 58.0744 28.8C58.3011 28.92 58.5611 29.0267 58.8544 29.12C59.1477 29.2 59.4544 29.2667 59.7744 29.32C60.5077 29.4667 61.1677 29.66 61.7544 29.9C62.3544 30.14 62.8677 30.4333 63.2944 30.78C63.7344 31.1267 64.0677 31.54 64.2944 32.02C64.5344 32.4867 64.6544 33.0333 64.6544 33.66C64.6544 34.6333 64.4144 35.46 63.9344 36.14C63.4677 36.8067 62.8211 37.32 61.9944 37.68C61.1811 38.0267 60.2411 38.2 59.1744 38.2ZM91.8902 38V24H95.2902V38H91.8902ZM83.2102 38V24H86.6102V38H83.2102ZM84.5302 32.54L84.5502 29.5H93.6902V32.54H84.5302ZM114.516 38V35.14H116.876V26.86H114.516V24H122.656V26.86H120.276V35.14H122.656V38H114.516ZM141.89 38V24H145.29V38H141.89ZM143.47 32.64V29.8H150.71V32.64H143.47ZM143.47 27V24H151.53V27H143.47ZM173.586 38V27H169.426V24H181.246V27H176.986V38H173.586ZM204.292 38.2C203.372 38.2 202.538 38.0933 201.792 37.88C201.058 37.6533 200.405 37.3333 199.832 36.92C199.258 36.4933 198.745 35.9933 198.292 35.42L200.352 33.08C201.018 33.9733 201.685 34.5733 202.352 34.88C203.032 35.1867 203.732 35.34 204.452 35.34C204.812 35.34 205.138 35.2933 205.432 35.2C205.725 35.1067 205.952 34.9733 206.112 34.8C206.272 34.6133 206.352 34.3867 206.352 34.12C206.352 33.92 206.298 33.74 206.192 33.58C206.098 33.42 205.965 33.28 205.792 33.16C205.618 33.04 205.412 32.9333 205.172 32.84C204.932 32.7333 204.678 32.6467 204.412 32.58C204.145 32.5 203.872 32.4333 203.592 32.38C202.818 32.2067 202.145 31.9933 201.572 31.74C200.998 31.4867 200.518 31.18 200.132 30.82C199.758 30.4467 199.478 30.0267 199.292 29.56C199.105 29.08 199.012 28.5467 199.012 27.96C199.012 27.3333 199.152 26.76 199.432 26.24C199.725 25.7067 200.112 25.2533 200.592 24.88C201.085 24.4933 201.652 24.2 202.292 24C202.932 23.7867 203.598 23.68 204.292 23.68C205.212 23.68 205.998 23.78 206.652 23.98C207.318 24.1667 207.885 24.44 208.352 24.8C208.832 25.16 209.238 25.5933 209.572 26.1L207.472 28.12C207.192 27.7733 206.885 27.4867 206.552 27.26C206.232 27.0333 205.885 26.86 205.512 26.74C205.152 26.62 204.778 26.56 204.392 26.56C203.992 26.56 203.645 26.6133 203.352 26.72C203.072 26.8133 202.852 26.9533 202.692 27.14C202.532 27.3133 202.452 27.5267 202.452 27.78C202.452 28.0067 202.518 28.2 202.652 28.36C202.785 28.52 202.965 28.6667 203.192 28.8C203.418 28.92 203.678 29.0267 203.972 29.12C204.265 29.2 204.572 29.2667 204.892 29.32C205.625 29.4667 206.285 29.66 206.872 29.9C207.472 30.14 207.985 30.4333 208.412 30.78C208.852 31.1267 209.185 31.54 209.412 32.02C209.652 32.4867 209.772 33.0333 209.772 33.66C209.772 34.6333 209.532 35.46 209.052 36.14C208.585 36.8067 207.938 37.32 207.112 37.68C206.298 38.0267 205.358 38.2 204.292 38.2Z" fill="#262626"/>
</svg>
